<?xml version="1.0" encoding="UTF-8"?>
<!DOCTYPE svg PUBLIC "-//W3C//DTD SVG 1.1//EN" "http://www.w3.org/Graphics/SVG/1.1/DTD/svg11.dtd">
<!-- Creator: CorelDRAW 2020 (64-Bit Versión de evaluación) -->
<svg xmlns="http://www.w3.org/2000/svg" xml:space="preserve" width="385px" height="500px" version="1.1" style="shape-rendering:geometricPrecision; text-rendering:geometricPrecision; image-rendering:optimizeQuality; fill-rule:evenodd; clip-rule:evenodd"
viewBox="0 0 64.17 83.27"
 xmlns:xlink="http://www.w3.org/1999/xlink"
 xmlns:xodm="http://www.corel.com/coreldraw/odm/2003">
 <defs>
  <style type="text/css">
   <![CDATA[
    .str1 {stroke:white;stroke-width:2.14;stroke-miterlimit:22.9256}
    .str0 {stroke:white;stroke-width:2.67;stroke-miterlimit:22.9256}
    .fil0 {fill:none}
    .fil1 {fill:white}
   ]]>
  </style>
 </defs>
 <g id="Capa_x0020_1">
  <metadata id="CorelCorpID_0Corel-Layer"/>
  <path class="fil0 str0" d="M1.34 1.34l61.49 0 0 63.45c-0.23,3.77 -3.3,6.01 -8.48,7.12l-53.01 9.75 0 -80.32z"/>
  <path class="fil0 str1" d="M1.34 81.66l47.32 -15.27c2.09,2.49 4.49,4.25 7.25,5.13"/>
  <rect class="fil0 str0" x="18.41" y="16.71" width="27.14" height="30.75" rx="2" ry="2"/>
  <rect class="fil1" x="16.58" y="6.44" width="3.41" height="5.11"/>
  <rect class="fil1" x="23.42" y="6.44" width="3.41" height="5.11"/>
  <rect class="fil1" x="30.18" y="6.44" width="3.41" height="5.11"/>
  <rect class="fil1" x="37.07" y="6.44" width="3.41" height="5.11"/>
  <rect class="fil1" x="43.93" y="6.44" width="3.41" height="5.11"/>
  <rect class="fil1" x="16.56" y="52.52" width="30.8" height="3.61"/>
  <rect class="fil1" x="16.56" y="59.43" width="8.41" height="3.61"/>
  <rect class="fil1" x="28.63" y="59.43" width="18.83" height="3.61"/>
  <rect class="fil1" x="16.56" y="66.19" width="11.92" height="3.61"/>
 </g>
</svg>
