<?xml version="1.0" encoding="UTF-8"?>
<!DOCTYPE svg PUBLIC "-//W3C//DTD SVG 1.1//EN" "http://www.w3.org/Graphics/SVG/1.1/DTD/svg11.dtd">
<!-- Creator: CorelDRAW 2020 (64-Bit Versión de evaluación) -->
<svg xmlns="http://www.w3.org/2000/svg" xml:space="preserve" width="483px" height="500px" version="1.1" style="shape-rendering:geometricPrecision; text-rendering:geometricPrecision; image-rendering:optimizeQuality; fill-rule:evenodd; clip-rule:evenodd"
viewBox="0 0 1127.63 1166.99"
 xmlns:xlink="http://www.w3.org/1999/xlink"
 xmlns:xodm="http://www.corel.com/coreldraw/odm/2003">
 <defs>
  <style type="text/css">
   <![CDATA[
    .str0 {stroke:white;stroke-width:2.19;stroke-miterlimit:22.9256}
    .fil0 {fill:white}
   ]]>
  </style>
 </defs>
 <g id="Capa_x0020_1">
  <metadata id="CorelCorpID_0Corel-Layer"/>
  <rect class="fil0" x="252.05" width="79.63" height="201.68" rx="39.81" ry="35.47"/>
  <rect class="fil0" x="543.78" width="79.63" height="201.68" rx="39.81" ry="35.47"/>
  <rect class="fil0" x="836.95" width="79.63" height="201.68" rx="39.81" ry="35.47"/>
  <rect class="fil0" x="375.47" y="501.36" width="166.13" height="121.98" rx="12.64" ry="38.37"/>
  <rect class="fil0" x="583.4" y="501.36" width="166.13" height="121.98" rx="12.64" ry="38.37"/>
  <rect class="fil0" x="793.33" y="501.36" width="166.13" height="121.98" rx="12.64" ry="38.37"/>
  <rect class="fil0" x="375.47" y="669.49" width="166.13" height="121.98" rx="12.64" ry="38.37"/>
  <rect class="fil0" x="583.4" y="669.49" width="166.13" height="121.98" rx="12.64" ry="38.37"/>
  <rect class="fil0" x="793.33" y="669.49" width="166.13" height="121.98" rx="12.64" ry="38.37"/>
  <rect class="fil0" x="167" y="837.24" width="166.13" height="121.98" rx="12.64" ry="38.37"/>
  <rect class="fil0" x="374.93" y="837.24" width="166.13" height="121.98" rx="12.64" ry="38.37"/>
  <rect class="fil0" x="584.85" y="837.24" width="166.13" height="121.98" rx="12.64" ry="38.37"/>
  <rect class="fil0" x="167" y="669.49" width="166.13" height="121.98" rx="12.64" ry="38.37"/>
  <path class="fil0 str0" d="M167.71 84.77l40.55 0 0 80.71c0,45.99 37.62,83.61 83.61,83.61l0 0c45.98,0 83.61,-37.62 83.61,-83.61l0 -80.71 124.5 0 0 80.71c0,45.99 37.63,83.61 83.61,83.61l0 0c45.99,0 83.61,-37.62 83.61,-83.61l0 -80.71 125.96 0 0 80.71c0,45.99 37.62,83.61 83.61,83.61l0 0c45.98,0 83.6,-37.62 83.6,-83.61l0 -80.7c91.44,0.24 166.17,75.11 166.17,166.6l0 747.9c0,91.64 -74.97,166.61 -166.61,166.61l-792.22 0c-91.64,0 -166.62,-74.97 -166.62,-166.61l0 -747.9c0,-91.63 74.98,-166.61 166.62,-166.61zm873.71 330.81l0 589.24c0,43 -35.18,78.18 -78.18,78.18l-802.06 0c-43,0 -78.18,-35.18 -78.18,-78.18l0 -589.24 958.42 0z"/>
 </g>
</svg>
