<?xml version="1.0" encoding="UTF-8"?>
<!DOCTYPE svg PUBLIC "-//W3C//DTD SVG 1.1//EN" "http://www.w3.org/Graphics/SVG/1.1/DTD/svg11.dtd">
<!-- Creator: CorelDRAW 2020 (64-Bit Versión de evaluación) -->
<svg xmlns="http://www.w3.org/2000/svg" xml:space="preserve" width="500px" height="500px" version="1.1" style="shape-rendering:geometricPrecision; text-rendering:geometricPrecision; image-rendering:optimizeQuality; fill-rule:evenodd; clip-rule:evenodd"
viewBox="0 0 53.3 53.32"
 xmlns:xlink="http://www.w3.org/1999/xlink"
 xmlns:xodm="http://www.corel.com/coreldraw/odm/2003">
 <defs>
  <style type="text/css">
   <![CDATA[
    .str2 {stroke:white;stroke-width:1.42;stroke-miterlimit:22.9256}
    .str0 {stroke:white;stroke-width:2.13;stroke-miterlimit:22.9256}
    .str1 {stroke:white;stroke-width:1.77;stroke-miterlimit:22.9256}
    .fil0 {fill:none}
   ]]>
  </style>
 </defs>
 <g id="Capa_x0020_1">
  <metadata id="CorelCorpID_0Corel-Layer"/>
  <path class="fil0 str0" d="M26.62 1.06c14.11,0 25.55,11.45 25.55,25.56 0,0.55 0.18,1.14 -0.05,1.63 -3.83,8.05 -14.37,18.09 -24.11,23.89 -0.39,0.23 -0.92,0.03 -1.39,0.03 -14.11,0 -25.56,-11.44 -25.56,-25.55 0,-14.11 11.45,-25.56 25.56,-25.56z"/>
  <path class="fil0 str1" d="M52.17 26.62c-0.31,0.7 -2.85,1.39 -3.53,1.58 -12.03,3.44 -16.95,10.02 -20.07,20.49 -0.38,1.27 -0.63,2.52 -1.95,3.48"/>
  <polygon class="fil0 str2" points="26.65,8.84 30.77,21.6 44.18,21.58 33.32,29.44 35.37,35.7 34.23,37.02 33.03,38.93 26.65,34.28 15.82,42.18 19.99,29.44 9.12,21.58 22.53,21.6 "/>
 </g>
</svg>
