<?xml version="1.0" encoding="UTF-8"?>
<!DOCTYPE svg PUBLIC "-//W3C//DTD SVG 1.1//EN" "http://www.w3.org/Graphics/SVG/1.1/DTD/svg11.dtd">
<!-- Creator: CorelDRAW 2020 (64-Bit Versión de evaluación) -->
<svg xmlns="http://www.w3.org/2000/svg" xml:space="preserve" width="384px" height="500px" version="1.1" style="shape-rendering:geometricPrecision; text-rendering:geometricPrecision; image-rendering:optimizeQuality; fill-rule:evenodd; clip-rule:evenodd"
viewBox="0 0 48.01 62.54"
 xmlns:xlink="http://www.w3.org/1999/xlink"
 xmlns:xodm="http://www.corel.com/coreldraw/odm/2003">
 <defs>
  <style type="text/css">
   <![CDATA[
    .str0 {stroke:white;stroke-width:2.17;stroke-miterlimit:22.9256}
    .str1 {stroke:white;stroke-width:1.8;stroke-miterlimit:22.9256}
    .fil0 {fill:none}
    .fil1 {fill:white}
    .fil2 {fill:white;fill-rule:nonzero}
   ]]>
  </style>
 </defs>
 <g id="Capa_x0020_1">
  <metadata id="CorelCorpID_0Corel-Layer"/>
  <path class="fil0 str0" d="M5.08 1.08l29.95 0 11.9 12.39 0 43.99c0,2.2 -1.8,4 -4,4l-37.85 0c-2.2,0 -4,-1.8 -4,-4l0 -52.38c0,-2.2 1.8,-4 4,-4z"/>
  <line class="fil0 str1" x1="35.03" y1="1.08" x2="35.03" y2= "13.47" />
  <line class="fil0 str1" x1="46.93" y1="13.47" x2="34.12" y2= "13.47" />
  <rect class="fil1" x="27.34" y="18.57" width="14.48" height="2.34"/>
  <rect class="fil1" x="27.34" y="22.76" width="8.29" height="2.34"/>
  <rect class="fil1" x="37.78" y="22.76" width="4.05" height="2.34"/>
  <circle class="fil0 str0" cx="15.78" cy="15.54" r="8.39"/>
  <path class="fil2" d="M15.76 20.47c-0.44,0 -0.87,-0.06 -1.29,-0.17 -0.42,-0.11 -0.8,-0.26 -1.15,-0.46 -0.35,-0.19 -0.63,-0.41 -0.86,-0.67l0 0 0.88 -1.3 0 0c0.33,0.35 0.7,0.61 1.11,0.79 0.41,0.18 0.85,0.27 1.31,0.27 0.57,0 1,-0.12 1.3,-0.34 0.29,-0.23 0.44,-0.55 0.44,-0.99l0 0c0,-0.31 -0.08,-0.55 -0.23,-0.72 -0.15,-0.17 -0.35,-0.29 -0.61,-0.37 -0.25,-0.09 -0.52,-0.15 -0.81,-0.21 -0.34,-0.06 -0.68,-0.13 -1.03,-0.21 -0.35,-0.09 -0.67,-0.22 -0.96,-0.4 -0.29,-0.18 -0.53,-0.44 -0.7,-0.78 -0.19,-0.33 -0.27,-0.79 -0.27,-1.36l0 -0.01c0,-0.95 0.27,-1.68 0.82,-2.17 0.55,-0.5 1.35,-0.75 2.4,-0.75 0.47,0 0.94,0.08 1.41,0.24 0.48,0.16 0.93,0.39 1.36,0.7l0 0 -0.79 1.33 0 0c-0.33,-0.24 -0.66,-0.42 -1,-0.55 -0.33,-0.12 -0.66,-0.18 -0.98,-0.18 -0.53,0 -0.93,0.1 -1.2,0.32 -0.28,0.21 -0.42,0.52 -0.42,0.93l0 0c0,0.34 0.09,0.59 0.26,0.77 0.18,0.17 0.41,0.3 0.69,0.39 0.28,0.08 0.59,0.16 0.9,0.23 0.34,0.07 0.66,0.15 0.99,0.26 0.32,0.1 0.62,0.25 0.89,0.44 0.26,0.19 0.48,0.45 0.64,0.79 0.16,0.33 0.24,0.77 0.24,1.3l0 0.01c0,0.93 -0.28,1.64 -0.85,2.13 -0.57,0.49 -1.4,0.74 -2.49,0.74zm-0.63 1.07l0 -1.6 1.58 0 0 1.6 -1.58 0zm0 -10.48l0 -1.52 1.58 0 0 1.52 -1.58 0z"/>
  <rect class="fil0 str1" x="7.44" y="30.22" width="33.46" height="24.87" rx="2.1" ry="2.1"/>
  <line class="fil0 str1" x1="15.83" y1="30.22" x2="15.83" y2= "55.09" />
  <line class="fil0 str1" x1="7.44" y1="36.42" x2="40.9" y2= "36.42" />
 </g>
</svg>
